<svg id="bb61fdcd-064f-45bf-a5b0-2803b1f4ea20" data-name="Livello 1" xmlns="http://www.w3.org/2000/svg" viewBox="0 0 50 50"><defs><style>.bdc10ad8-f55e-4b7c-b438-eb320fe08ed9{fill:#27348b;}.a6e96bc1-0620-47f4-b739-9d76e27f499b{fill:#a48a7b;}.b2fc8bc2-8faa-4865-bfb0-eb6dfe061236{fill:#e30613;}</style></defs><path class="bdc10ad8-f55e-4b7c-b438-eb320fe08ed9" d="M4.34,19.89a1.71,1.71,0,0,1,0-3.41A1.64,1.64,0,0,1,5,16.6v3.16A1.48,1.48,0,0,1,4.34,19.89Z"/><rect class="a6e96bc1-0620-47f4-b739-9d76e27f499b" x="1.73" y="16.27" width="10.96" height="3.82" transform="translate(25.39 10.97) rotate(90)"/><path class="b2fc8bc2-8faa-4865-bfb0-eb6dfe061236" d="M23.29,3.92a1.71,1.71,0,0,1,3.41,0,1.64,1.64,0,0,1-.12.63H23.42A1.48,1.48,0,0,1,23.29,3.92Z"/><rect class="a6e96bc1-0620-47f4-b739-9d76e27f499b" x="19.52" y="4.88" width="10.96" height="3.82" transform="translate(50 13.59) rotate(180)"/><path class="bdc10ad8-f55e-4b7c-b438-eb320fe08ed9" d="M45.33,16.48a1.71,1.71,0,0,1,0,3.41,1.64,1.64,0,0,1-.63-.12V16.61A1.48,1.48,0,0,1,45.33,16.48Z"/><rect class="a6e96bc1-0620-47f4-b739-9d76e27f499b" x="36.98" y="16.27" width="10.96" height="3.82" transform="translate(24.28 60.64) rotate(-90)"/><path class="bdc10ad8-f55e-4b7c-b438-eb320fe08ed9" d="M4.34,32.36a1.71,1.71,0,0,1,0-3.41,1.64,1.64,0,0,1,.63.12v3.16A1.48,1.48,0,0,1,4.34,32.36Z"/><rect class="a6e96bc1-0620-47f4-b739-9d76e27f499b" x="1.73" y="28.74" width="10.96" height="3.82" transform="translate(37.86 23.44) rotate(90)"/><path class="bdc10ad8-f55e-4b7c-b438-eb320fe08ed9" d="M45.33,29a1.71,1.71,0,0,1,0,3.41,1.64,1.64,0,0,1-.63-.12V29.08A1.48,1.48,0,0,1,45.33,29Z"/><rect class="a6e96bc1-0620-47f4-b739-9d76e27f499b" x="36.98" y="28.74" width="10.96" height="3.82" transform="translate(11.8 73.11) rotate(-90)"/><path class="bdc10ad8-f55e-4b7c-b438-eb320fe08ed9" d="M12.35,44.66a1.71,1.71,0,0,1-3.41,0A1.64,1.64,0,0,1,9.06,44h3.16A1.48,1.48,0,0,1,12.35,44.66Z"/><rect class="a6e96bc1-0620-47f4-b739-9d76e27f499b" x="5.17" y="39.88" width="10.96" height="3.82"/><path class="bdc10ad8-f55e-4b7c-b438-eb320fe08ed9" d="M26.71,44.66a1.71,1.71,0,0,1-3.41,0,1.64,1.64,0,0,1,.12-.63h3.16A1.48,1.48,0,0,1,26.71,44.66Z"/><rect class="a6e96bc1-0620-47f4-b739-9d76e27f499b" x="19.52" y="39.88" width="10.96" height="3.82"/><path class="bdc10ad8-f55e-4b7c-b438-eb320fe08ed9" d="M41,44.66a1.71,1.71,0,0,1-3.41,0,1.64,1.64,0,0,1,.12-.63h3.16A1.48,1.48,0,0,1,41,44.66Z"/><rect class="a6e96bc1-0620-47f4-b739-9d76e27f499b" x="33.77" y="39.88" width="10.96" height="3.82"/></svg>