<svg id="bd733cff-0879-4ec9-98aa-32570ec9cab6" data-name="Livello 1" xmlns="http://www.w3.org/2000/svg" viewBox="0 0 50 50"><defs><style>.b017563f-702a-4576-8996-61c6ef36ebfd{fill:#27348b;}.e1b4cfda-87f6-41c9-8319-eabfdc778a1f{fill:#a48a7b;}.b75b4e55-555f-48b9-883e-01f7ab001c52{fill:#e30613;}</style></defs><path class="b017563f-702a-4576-8996-61c6ef36ebfd" d="M9.91,19.72a1.71,1.71,0,0,1-3.41,0,1.64,1.64,0,0,1,.12-.63H9.78A1.48,1.48,0,0,1,9.91,19.72Z"/><rect class="e1b4cfda-87f6-41c9-8319-eabfdc778a1f" x="2.73" y="14.94" width="10.96" height="3.82"/><path class="b017563f-702a-4576-8996-61c6ef36ebfd" d="M26.71,19.72a1.71,1.71,0,0,1-3.41,0,1.64,1.64,0,0,1,.12-.63h3.16A1.48,1.48,0,0,1,26.71,19.72Z"/><rect class="e1b4cfda-87f6-41c9-8319-eabfdc778a1f" x="19.52" y="14.94" width="10.96" height="3.82"/><path class="b75b4e55-555f-48b9-883e-01f7ab001c52" d="M23.29,3.92a1.71,1.71,0,0,1,3.41,0,1.64,1.64,0,0,1-.12.63H23.42A1.48,1.48,0,0,1,23.29,3.92Z"/><rect class="e1b4cfda-87f6-41c9-8319-eabfdc778a1f" x="19.52" y="4.88" width="10.96" height="3.82" transform="translate(50 13.59) rotate(180)"/><path class="b017563f-702a-4576-8996-61c6ef36ebfd" d="M43.5,19.72a1.71,1.71,0,0,1-3.41,0,1.64,1.64,0,0,1,.12-.63h3.16A1.48,1.48,0,0,1,43.5,19.72Z"/><rect class="e1b4cfda-87f6-41c9-8319-eabfdc778a1f" x="36.31" y="14.94" width="10.96" height="3.82"/><path class="b017563f-702a-4576-8996-61c6ef36ebfd" d="M9.91,32.19a1.71,1.71,0,0,1-3.41,0,1.64,1.64,0,0,1,.12-.63H9.78A1.48,1.48,0,0,1,9.91,32.19Z"/><rect class="e1b4cfda-87f6-41c9-8319-eabfdc778a1f" x="2.73" y="27.41" width="10.96" height="3.82"/><path class="b017563f-702a-4576-8996-61c6ef36ebfd" d="M26.71,32.19a1.71,1.71,0,0,1-3.41,0,1.64,1.64,0,0,1,.12-.63h3.16A1.48,1.48,0,0,1,26.71,32.19Z"/><rect class="e1b4cfda-87f6-41c9-8319-eabfdc778a1f" x="19.52" y="27.41" width="10.96" height="3.82"/><path class="b017563f-702a-4576-8996-61c6ef36ebfd" d="M43.5,32.19a1.71,1.71,0,0,1-3.41,0,1.64,1.64,0,0,1,.12-.63h3.16A1.48,1.48,0,0,1,43.5,32.19Z"/><rect class="e1b4cfda-87f6-41c9-8319-eabfdc778a1f" x="36.31" y="27.41" width="10.96" height="3.82"/><path class="b017563f-702a-4576-8996-61c6ef36ebfd" d="M9.91,44.66a1.71,1.71,0,0,1-3.41,0A1.64,1.64,0,0,1,6.62,44H9.78A1.48,1.48,0,0,1,9.91,44.66Z"/><rect class="e1b4cfda-87f6-41c9-8319-eabfdc778a1f" x="2.73" y="39.88" width="10.96" height="3.82"/><path class="b017563f-702a-4576-8996-61c6ef36ebfd" d="M26.71,44.66a1.71,1.71,0,0,1-3.41,0,1.64,1.64,0,0,1,.12-.63h3.16A1.48,1.48,0,0,1,26.71,44.66Z"/><rect class="e1b4cfda-87f6-41c9-8319-eabfdc778a1f" x="19.52" y="39.88" width="10.96" height="3.82"/><path class="b017563f-702a-4576-8996-61c6ef36ebfd" d="M43.5,44.66a1.71,1.71,0,0,1-3.41,0,1.64,1.64,0,0,1,.12-.63h3.16A1.48,1.48,0,0,1,43.5,44.66Z"/><rect class="e1b4cfda-87f6-41c9-8319-eabfdc778a1f" x="36.31" y="39.88" width="10.96" height="3.82"/></svg>