<svg id="b5ebe778-a344-4c5b-b22c-d56a88251f1f" data-name="Livello 1" xmlns="http://www.w3.org/2000/svg" viewBox="0 0 50 50"><defs><style>.bc50934c-ef81-483c-863d-83780bc351bc{fill:#27348b;}.b8536b85-df07-4482-a31d-4f50c5f25a65{fill:#a48a7b;}.aa907329-76d6-4e86-b0bd-6fbb473db922{fill:#e30613;}</style></defs><path class="bc50934c-ef81-483c-863d-83780bc351bc" d="M9.91,19.72a1.71,1.71,0,0,1-3.41,0,1.64,1.64,0,0,1,.12-.63H9.78A1.48,1.48,0,0,1,9.91,19.72Z"/><rect class="b8536b85-df07-4482-a31d-4f50c5f25a65" x="2.73" y="14.94" width="10.96" height="3.82"/><path class="bc50934c-ef81-483c-863d-83780bc351bc" d="M17.47,19.72a1.71,1.71,0,0,1-3.41,0,1.64,1.64,0,0,1,.12-.63h3.16A1.48,1.48,0,0,1,17.47,19.72Z"/><rect class="b8536b85-df07-4482-a31d-4f50c5f25a65" x="10.28" y="14.94" width="10.96" height="3.82"/><path class="aa907329-76d6-4e86-b0bd-6fbb473db922" d="M23.29,3.92a1.71,1.71,0,0,1,3.41,0,1.64,1.64,0,0,1-.12.63H23.42A1.48,1.48,0,0,1,23.29,3.92Z"/><rect class="b8536b85-df07-4482-a31d-4f50c5f25a65" x="19.52" y="4.88" width="10.96" height="3.82" transform="translate(50 13.59) rotate(180)"/><path class="bc50934c-ef81-483c-863d-83780bc351bc" d="M9.91,32.19a1.71,1.71,0,0,1-3.41,0,1.64,1.64,0,0,1,.12-.63H9.78A1.48,1.48,0,0,1,9.91,32.19Z"/><rect class="b8536b85-df07-4482-a31d-4f50c5f25a65" x="2.73" y="27.41" width="10.96" height="3.82"/><path class="bc50934c-ef81-483c-863d-83780bc351bc" d="M17.47,32.19a1.71,1.71,0,0,1-3.41,0,1.64,1.64,0,0,1,.12-.63h3.16A1.48,1.48,0,0,1,17.47,32.19Z"/><rect class="b8536b85-df07-4482-a31d-4f50c5f25a65" x="10.28" y="27.41" width="10.96" height="3.82"/><path class="bc50934c-ef81-483c-863d-83780bc351bc" d="M9.91,44.66a1.71,1.71,0,0,1-3.41,0A1.64,1.64,0,0,1,6.62,44H9.78A1.48,1.48,0,0,1,9.91,44.66Z"/><rect class="b8536b85-df07-4482-a31d-4f50c5f25a65" x="2.73" y="39.88" width="10.96" height="3.82"/><path class="bc50934c-ef81-483c-863d-83780bc351bc" d="M17.47,44.66a1.71,1.71,0,0,1-3.41,0,1.64,1.64,0,0,1,.12-.63h3.16A1.48,1.48,0,0,1,17.47,44.66Z"/><rect class="b8536b85-df07-4482-a31d-4f50c5f25a65" x="10.28" y="39.88" width="10.96" height="3.82"/><path class="bc50934c-ef81-483c-863d-83780bc351bc" d="M35.74,19.72a1.71,1.71,0,0,1-3.41,0,1.64,1.64,0,0,1,.12-.63h3.16A1.48,1.48,0,0,1,35.74,19.72Z"/><rect class="b8536b85-df07-4482-a31d-4f50c5f25a65" x="28.56" y="14.94" width="10.96" height="3.82"/><path class="bc50934c-ef81-483c-863d-83780bc351bc" d="M43.29,19.72a1.71,1.71,0,0,1-3.41,0,1.64,1.64,0,0,1,.12-.63h3.16A1.48,1.48,0,0,1,43.29,19.72Z"/><rect class="b8536b85-df07-4482-a31d-4f50c5f25a65" x="36.11" y="14.94" width="10.96" height="3.82"/><path class="bc50934c-ef81-483c-863d-83780bc351bc" d="M35.74,32.19a1.71,1.71,0,0,1-3.41,0,1.64,1.64,0,0,1,.12-.63h3.16A1.48,1.48,0,0,1,35.74,32.19Z"/><rect class="b8536b85-df07-4482-a31d-4f50c5f25a65" x="28.56" y="27.41" width="10.96" height="3.82"/><path class="bc50934c-ef81-483c-863d-83780bc351bc" d="M43.29,32.19a1.71,1.71,0,0,1-3.41,0,1.64,1.64,0,0,1,.12-.63h3.16A1.48,1.48,0,0,1,43.29,32.19Z"/><rect class="b8536b85-df07-4482-a31d-4f50c5f25a65" x="36.11" y="27.41" width="10.96" height="3.82"/><path class="bc50934c-ef81-483c-863d-83780bc351bc" d="M35.74,44.66a1.71,1.71,0,0,1-3.41,0,1.64,1.64,0,0,1,.12-.63h3.16A1.48,1.48,0,0,1,35.74,44.66Z"/><rect class="b8536b85-df07-4482-a31d-4f50c5f25a65" x="28.56" y="39.88" width="10.96" height="3.82"/><path class="bc50934c-ef81-483c-863d-83780bc351bc" d="M43.29,44.66a1.71,1.71,0,0,1-3.41,0A1.64,1.64,0,0,1,40,44h3.16A1.48,1.48,0,0,1,43.29,44.66Z"/><rect class="b8536b85-df07-4482-a31d-4f50c5f25a65" x="36.11" y="39.88" width="10.96" height="3.82"/></svg>