<svg id="f50852fb-0bc0-40ff-a93d-f0d83c25413c" data-name="Livello 1" xmlns="http://www.w3.org/2000/svg" viewBox="0 0 76.28 92.58"><defs><style>.a4d538e9-c9dc-421e-868e-e4bc633a7ee2{fill:#fff;}</style></defs><path d="M282.07,439c.45.37.87.75,1.31,1.09a19.28,19.28,0,0,0,7.85,3.77,17,17,0,0,0,4.55.42,13.3,13.3,0,0,0,4.84-1.19,19.32,19.32,0,0,0,4.63-2.94q.56-.46,1.08-1a.69.69,0,0,1,.51-.21c.34,0,.68,0,1,0h5.45a20.16,20.16,0,0,1,19.49,15.53,18.62,18.62,0,0,1,.52,4.35v12.69c0,.14,0,.28,0,.43a1,1,0,0,1-.21,0H257.23a.9.9,0,0,1-.16-.05c0-.12,0-.25,0-.37,0-4.28,0-8.56,0-12.84a19.46,19.46,0,0,1,4.65-12.5,19.77,19.77,0,0,1,10.82-6.73,18.25,18.25,0,0,1,4.16-.54h5.38Z" transform="translate(-257.03 -379.48)"/><path d="M274.81,407.82l-.17-.2a1.29,1.29,0,0,1-.35-.93V395.45a.36.36,0,1,1,.57-.43l6.49,1.86,13.39,3.85a1.5,1.5,0,0,0,.89,0q9.92-2.87,19.84-5.7a1.38,1.38,0,0,1,.59-.11,2.51,2.51,0,0,1,0,.27v11a1.21,1.21,0,0,0,0,.19,1.59,1.59,0,0,1-.52,1.39c0,.08,0,.14,0,.2a47.63,47.63,0,0,1,.21,4.92c0,1.25,0,2.51-.15,3.76a26.79,26.79,0,0,1-5.75,14.59,20.46,20.46,0,0,1-6.87,5.59,17.43,17.43,0,0,1-16.23-.3,20.91,20.91,0,0,1-6.55-5.61,25.9,25.9,0,0,1-4.55-9.14,28.38,28.38,0,0,1-1-5.93c-.12-1.84-.11-3.67-.05-5.5,0-.71.09-1.41.14-2.12C274.79,408.11,274.8,408,274.81,407.82Zm37,.87h-.33l-2.17.15-3.22.25-3,.23-3.32.26-3.17.25c-.44,0-.87.09-1.3.09s-.93-.05-1.4-.09l-3.41-.26-2.84-.22-3.42-.26-3.07-.25-2.12-.15a2,2,0,0,0-.34,0c0,.08,0,.14-.05.2,0,.49-.08,1-.09,1.49-.05,1.77-.06,3.54.06,5.31a24.58,24.58,0,0,0,.8,4.89,22,22,0,0,0,3.88,7.92,16.82,16.82,0,0,0,5.42,4.64,13.46,13.46,0,0,0,10.7,1,15,15,0,0,0,5.68-3.36,19.72,19.72,0,0,0,4.35-5.86,24.51,24.51,0,0,0,2.49-9.84c.08-1.72.07-3.44,0-5.16C311.84,409.55,311.8,409.15,311.77,408.69Z" transform="translate(-257.03 -379.48)"/><path d="M260.57,389.35l.43-.14,33.33-9.56a2.4,2.4,0,0,1,1.73,0q15.57,4.49,31.14,8.94l2.18.63.4.12c-.08.14-.21.15-.32.18l-5.65,1.63-2.18.62-.35.08-.21-.32a2,2,0,0,0-1.4-.86l-7.55-1-6.59-.91-6.59-.93c-.45-.06-.89-.13-1.34-.18a1.65,1.65,0,0,1-.71-.26,3.18,3.18,0,0,0-3.43,0,2.28,2.28,0,0,0-1.08,1.37A2.22,2.22,0,0,0,293,391a3.06,3.06,0,0,0,2.53.84,2.7,2.7,0,0,0,1.1-.33,1,1,0,0,1,.65-.1l2.19.32,3.78.54,3.72.53,3.73.53,3,.41.42.09a.94.94,0,0,1-.4.18l-5.33,1.53q-6.35,1.81-12.7,3.65a1.72,1.72,0,0,1-1,0l-33.56-9.64A1.16,1.16,0,0,1,260.57,389.35Z" transform="translate(-257.03 -379.48)"/><path d="M318.84,411.59c-.15-.1-.27-.16-.37-.24a1.44,1.44,0,0,1-.26-2.09,1.15,1.15,0,0,0,.29-.82V394.06c0-.18,0-.35,0-.49l-.07-.07,0,0-21.67-3.09c-.13.08-.25.17-.38.24a2.29,2.29,0,0,1-2.17.05,1.64,1.64,0,0,1-.68-.6,1.25,1.25,0,0,1,0-1.45,1.37,1.37,0,0,1,.56-.51,2.2,2.2,0,0,1,2.42.11,1.67,1.67,0,0,0,.79.3l3.87.54,3.77.52,3.83.53,3.82.54,3.87.54,3,.41a1.85,1.85,0,0,1,.23,0,.9.9,0,0,1,.72.75,3.33,3.33,0,0,1,0,.63v15.34c0,.13,0,.26,0,.39a.91.91,0,0,0,.18.63,1.39,1.39,0,0,1,.15,1.25,1.44,1.44,0,0,1-.54.72c-.1.08-.21.14-.34.23.41,2.36.87,4.71,1.28,7.08a.71.71,0,0,1-.2.06h-3.18a1.31,1.31,0,0,1-.22,0c.19-1.21.43-2.39.64-3.57S318.62,412.78,318.84,411.59Z" transform="translate(-257.03 -379.48)"/><path class="a4d538e9-c9dc-421e-868e-e4bc633a7ee2" d="M311.77,408.69c0,.46.07.86.09,1.26.08,1.72.09,3.44,0,5.16a24.51,24.51,0,0,1-2.49,9.84,19.72,19.72,0,0,1-4.35,5.86,15,15,0,0,1-5.68,3.36,13.46,13.46,0,0,1-10.7-1,16.82,16.82,0,0,1-5.42-4.64,22,22,0,0,1-3.88-7.92,24.58,24.58,0,0,1-.8-4.89c-.12-1.77-.11-3.54-.06-5.31,0-.5.06-1,.09-1.49,0-.06,0-.12.05-.2a2,2,0,0,1,.34,0l2.12.15,3.07.25,3.42.26,2.84.22,3.41.26c.47,0,.93.09,1.4.09s.86-.06,1.3-.09l3.17-.25,3.32-.26,3-.23,3.22-.25,2.17-.15Z" transform="translate(-257.03 -379.48)"/></svg>